<mxfile host="app.diagrams.net" modified="2023-10-11T09:02:03.806Z" agent="Mozilla/5.0 (Windows NT 10.0; Win64; x64) AppleWebKit/537.36 (KHTML, like Gecko) Chrome/117.0.0.0 Safari/537.36 Edg/117.0.2045.60" etag="lxy8cXsAN_KWf-D86GFU" version="22.0.4" type="device">
  <diagram name="Page-1" id="eCCwS6VdfYWLYsWG8Rdh">
    <mxGraphModel dx="462" dy="275" grid="0" gridSize="10" guides="1" tooltips="1" connect="1" arrows="1" fold="1" page="1" pageScale="1" pageWidth="3300" pageHeight="4681" math="0" shadow="0">
      <root>
        <mxCell id="0" />
        <mxCell id="1" parent="0" />
        <mxCell id="-eRoNxYey3AjRFfaAnAR-48" style="edgeStyle=orthogonalEdgeStyle;rounded=0;orthogonalLoop=1;jettySize=auto;html=1;entryX=0;entryY=0.5;entryDx=0;entryDy=0;exitX=0;exitY=0.5;exitDx=0;exitDy=0;" edge="1" parent="1" source="-eRoNxYey3AjRFfaAnAR-2" target="-eRoNxYey3AjRFfaAnAR-4">
          <mxGeometry relative="1" as="geometry">
            <Array as="points">
              <mxPoint x="170" y="130" />
              <mxPoint x="170" y="280" />
            </Array>
          </mxGeometry>
        </mxCell>
        <mxCell id="-eRoNxYey3AjRFfaAnAR-2" value="Battery Cell EIS Testing Data" style="rounded=0;whiteSpace=wrap;html=1;" vertex="1" parent="1">
          <mxGeometry x="185" y="110" width="90" height="40" as="geometry" />
        </mxCell>
        <mxCell id="-eRoNxYey3AjRFfaAnAR-25" style="edgeStyle=orthogonalEdgeStyle;rounded=0;orthogonalLoop=1;jettySize=auto;html=1;entryX=0.5;entryY=0;entryDx=0;entryDy=0;" edge="1" parent="1" source="-eRoNxYey3AjRFfaAnAR-3" target="-eRoNxYey3AjRFfaAnAR-4">
          <mxGeometry relative="1" as="geometry" />
        </mxCell>
        <mxCell id="-eRoNxYey3AjRFfaAnAR-3" value="Non-Linear Randles Equivalent Circuit Model" style="rounded=0;whiteSpace=wrap;html=1;" vertex="1" parent="1">
          <mxGeometry x="185" y="170" width="90" height="70" as="geometry" />
        </mxCell>
        <mxCell id="-eRoNxYey3AjRFfaAnAR-4" value="NLP Curve Fitting" style="whiteSpace=wrap;html=1;" vertex="1" parent="1">
          <mxGeometry x="185" y="260" width="90" height="40" as="geometry" />
        </mxCell>
        <mxCell id="-eRoNxYey3AjRFfaAnAR-29" style="edgeStyle=orthogonalEdgeStyle;rounded=0;orthogonalLoop=1;jettySize=auto;html=1;entryX=0.5;entryY=1;entryDx=0;entryDy=0;" edge="1" parent="1" source="-eRoNxYey3AjRFfaAnAR-6" target="-eRoNxYey3AjRFfaAnAR-8">
          <mxGeometry relative="1" as="geometry" />
        </mxCell>
        <mxCell id="-eRoNxYey3AjRFfaAnAR-6" value="Populated Randles Cell Model" style="rounded=0;whiteSpace=wrap;html=1;" vertex="1" parent="1">
          <mxGeometry x="295" y="250" width="80" height="50" as="geometry" />
        </mxCell>
        <mxCell id="-eRoNxYey3AjRFfaAnAR-41" style="edgeStyle=orthogonalEdgeStyle;rounded=0;orthogonalLoop=1;jettySize=auto;html=1;entryX=0;entryY=0.5;entryDx=0;entryDy=0;exitX=0.5;exitY=0;exitDx=0;exitDy=0;" edge="1" parent="1" source="-eRoNxYey3AjRFfaAnAR-8" target="-eRoNxYey3AjRFfaAnAR-13">
          <mxGeometry relative="1" as="geometry" />
        </mxCell>
        <mxCell id="-eRoNxYey3AjRFfaAnAR-8" value="Battery Discrete Dynamics Equations" style="rounded=0;whiteSpace=wrap;html=1;" vertex="1" parent="1">
          <mxGeometry x="295" y="160" width="80" height="65" as="geometry" />
        </mxCell>
        <mxCell id="-eRoNxYey3AjRFfaAnAR-9" value="Mathematical Program" style="rounded=0;whiteSpace=wrap;html=1;direction=west;rotation=-90;" vertex="1" parent="1">
          <mxGeometry x="465" y="190" width="190" height="30" as="geometry" />
        </mxCell>
        <mxCell id="-eRoNxYey3AjRFfaAnAR-10" value="Humanoid Mechanical Dynamics Constraints" style="rounded=0;whiteSpace=wrap;html=1;" vertex="1" parent="1">
          <mxGeometry x="395" y="230" width="130" height="40" as="geometry" />
        </mxCell>
        <mxCell id="-eRoNxYey3AjRFfaAnAR-11" value="Cost Function" style="rounded=0;whiteSpace=wrap;html=1;" vertex="1" parent="1">
          <mxGeometry x="395" y="280" width="130" height="20" as="geometry" />
        </mxCell>
        <mxCell id="-eRoNxYey3AjRFfaAnAR-12" value="Battery Dynamics Constraints" style="rounded=0;whiteSpace=wrap;html=1;" vertex="1" parent="1">
          <mxGeometry x="395" y="170" width="130" height="40" as="geometry" />
        </mxCell>
        <mxCell id="-eRoNxYey3AjRFfaAnAR-13" value="Battery Voltage and Current Constraints" style="rounded=0;whiteSpace=wrap;html=1;" vertex="1" parent="1">
          <mxGeometry x="395" y="110" width="130" height="40" as="geometry" />
        </mxCell>
        <mxCell id="-eRoNxYey3AjRFfaAnAR-40" style="edgeStyle=orthogonalEdgeStyle;rounded=0;orthogonalLoop=1;jettySize=auto;html=1;entryX=0;entryY=0.563;entryDx=0;entryDy=0;entryPerimeter=0;" edge="1" parent="1" source="-eRoNxYey3AjRFfaAnAR-8" target="-eRoNxYey3AjRFfaAnAR-12">
          <mxGeometry relative="1" as="geometry" />
        </mxCell>
        <mxCell id="-eRoNxYey3AjRFfaAnAR-42" style="edgeStyle=orthogonalEdgeStyle;rounded=0;orthogonalLoop=1;jettySize=auto;html=1;entryX=0.105;entryY=1;entryDx=0;entryDy=0;entryPerimeter=0;" edge="1" parent="1" source="-eRoNxYey3AjRFfaAnAR-13" target="-eRoNxYey3AjRFfaAnAR-9">
          <mxGeometry relative="1" as="geometry" />
        </mxCell>
        <mxCell id="-eRoNxYey3AjRFfaAnAR-43" style="edgeStyle=orthogonalEdgeStyle;rounded=0;orthogonalLoop=1;jettySize=auto;html=1;entryX=0.421;entryY=1;entryDx=0;entryDy=0;entryPerimeter=0;" edge="1" parent="1" source="-eRoNxYey3AjRFfaAnAR-12" target="-eRoNxYey3AjRFfaAnAR-9">
          <mxGeometry relative="1" as="geometry" />
        </mxCell>
        <mxCell id="-eRoNxYey3AjRFfaAnAR-44" style="edgeStyle=orthogonalEdgeStyle;rounded=0;orthogonalLoop=1;jettySize=auto;html=1;entryX=0.737;entryY=1;entryDx=0;entryDy=0;entryPerimeter=0;" edge="1" parent="1" source="-eRoNxYey3AjRFfaAnAR-10" target="-eRoNxYey3AjRFfaAnAR-9">
          <mxGeometry relative="1" as="geometry" />
        </mxCell>
        <mxCell id="-eRoNxYey3AjRFfaAnAR-46" style="edgeStyle=orthogonalEdgeStyle;rounded=0;orthogonalLoop=1;jettySize=auto;html=1;entryX=0.947;entryY=1;entryDx=0;entryDy=0;entryPerimeter=0;" edge="1" parent="1" source="-eRoNxYey3AjRFfaAnAR-11" target="-eRoNxYey3AjRFfaAnAR-9">
          <mxGeometry relative="1" as="geometry" />
        </mxCell>
        <mxCell id="-eRoNxYey3AjRFfaAnAR-49" style="edgeStyle=orthogonalEdgeStyle;rounded=0;orthogonalLoop=1;jettySize=auto;html=1;entryX=-0.001;entryY=0.601;entryDx=0;entryDy=0;entryPerimeter=0;" edge="1" parent="1" source="-eRoNxYey3AjRFfaAnAR-4" target="-eRoNxYey3AjRFfaAnAR-6">
          <mxGeometry relative="1" as="geometry" />
        </mxCell>
      </root>
    </mxGraphModel>
  </diagram>
</mxfile>
